<?xml version="1.0" encoding="utf-8"?>
<!-- Generator: Adobe Illustrator 28.2.0, SVG Export Plug-In . SVG Version: 6.00 Build 0)  -->
<svg version="1.1" id="Assets" height="62" width="58"  xmlns="http://www.w3.org/2000/svg" xmlns:xlink="http://www.w3.org/1999/xlink" x="0px" y="0px"
	 viewBox="0 0 1110.75 1091.09" style="enable-background:new 0 0 1110.75 1091.09;" xml:space="preserve">
<style type="text/css">
	.st0{fill:#FF9F00;}
	.st1{fill:#FFFFFF;}
	.st2{display:none;}
	.st3{display:inline;}
</style>
<g>
	<g>
		<g>
			<path class="st0" d="M901.34,1068.16H208.55c-107.23,0-194.16-86.93-194.16-194.16V206.22c0-107.23,86.93-194.16,194.16-194.16
				h692.79c107.23,0,194.16,86.93,194.16,194.16V874C1095.5,981.23,1008.57,1068.16,901.34,1068.16z"/>
			<g>
				<rect x="752.64" y="434.96" class="st1" width="98.9" height="361.51"/>
				
					<ellipse transform="matrix(0.9239 -0.3827 0.3827 0.9239 -69.2865 332.8727)" class="st1" cx="802.09" cy="340.6" rx="56.84" ry="56.84"/>
				<g>
					<path class="st1" d="M538.43,320.14H411.02l0,0c0,21.42-3.72,42.68-10.98,62.83l-149.08,413.5h104.38l37.5-113.93l167.26-1.21
						l38.21,115.14h110.37L538.43,320.14z M420.27,589.29l54.38-184.92l57.05,184.92H420.27z"/>
				</g>
			</g>
		</g>
	</g>
	<g class="st2">
		<g class="st3">
			<path class="st0" d="M-238.93,1079.16h-692.79c-107.23,0-194.16-86.93-194.16-194.16V217.22c0-107.23,86.93-194.16,194.16-194.16
				h692.79c107.23,0,194.16,86.93,194.16,194.16V885C-44.77,992.23-131.7,1079.16-238.93,1079.16z"/>
			<g>
				<path class="st1" d="M-701.85,293.62h-176.21v469.5h98.9V616.48h77.3c44.57,0,84.93-18.08,114.15-47.28
					c29.2-29.22,47.28-69.57,47.28-114.15C-540.42,365.9-612.7,293.62-701.85,293.62z M-660.49,508.91
					c-13.79,13.78-32.83,22.3-53.86,22.3h-64.8V378.88h64.8c42.06,0,76.17,34.1,76.17,76.17
					C-638.19,476.08-646.71,495.12-660.49,508.91z"/>
			</g>
			<path class="st1" d="M-231.78,657.86c0,31.16-14.53,60.9-37.47,81.68c-25.85,23.42-61.75,33.41-95.87,36.01
				c-4.09,0.31-8.18,0.51-12.28,0.59c-37.92,0.77-77.79-7.29-112.25-23.21c-0.37-0.17-0.73-0.34-1.1-0.51
				c0.06-27.64,0.11-55.29,0.17-82.93c0,1.51,27.41,8.14,30.81,9.26c31.28,10.26,68.62,17.94,101.58,13.72
				c6.96-0.89,14.11-2.63,19.51-7.11c20.33-16.88-0.28-37.88-16.85-45.94c-17.97-8.74-37.32-14.26-55.67-22.15
				c-17.39-7.48-33.99-17.19-47.84-30.09c-45.83-42.71-44.06-114.43,2.66-155.91c26.45-23.49,62.17-30.94,96.65-32.46
				c35.69-1.57,71.71,4.79,104.75,18.38c1.27,0.52,2.61,1.12,3.32,2.3c0.6,1,0.62,2.23,0.62,3.4c0.03,28.22,0.07,56.45,0.1,84.67
				c-5.39-4.59-12.74-6.5-19.12-9.29c-6.92-3.02-13.99-5.69-21.17-8c-25.45-8.16-58.51-15.69-84.64-6.73
				c-9.6,3.29-16.76,10.13-16.76,20.77c0,16.45,16.12,24.36,29.3,30.37c16.33,7.44,33.73,11.97,50.01,19.52
				C-271.06,573.79-231.78,607.42-231.78,657.86z"/>
		</g>
	</g>
</g>
</svg>
