<?xml version="1.0" encoding="utf-8"?>
<!-- Generator: Adobe Illustrator 28.2.0, SVG Export Plug-In . SVG Version: 6.00 Build 0)  -->
<svg version="1.1" id="Assets" height="62" width="58"  xmlns="http://www.w3.org/2000/svg" xmlns:xlink="http://www.w3.org/1999/xlink" x="0px" y="0px"
	 viewBox="0 0 1110.75 1091.09" style="enable-background:new 0 0 1110.75 1091.09;" xml:space="preserve">
<style type="text/css">
	.st0{display:none;}
	.st1{display:inline;}
	.st2{fill:#FF9F00;}
	.st3{fill:#FFFFFF;}
</style>
<g>
	<g class="st0">
		<g class="st1">
			<path class="st2" d="M2032.34,1073.16h-692.79c-107.23,0-194.16-86.93-194.16-194.16V211.22c0-107.23,86.93-194.16,194.16-194.16
				h692.79c107.23,0,194.16,86.93,194.16,194.16V879C2226.5,986.23,2139.57,1073.16,2032.34,1073.16z"/>
			<g>
				<rect x="1883.64" y="439.96" class="st3" width="98.9" height="361.51"/>
				
					<ellipse transform="matrix(0.9239 -0.3827 0.3827 0.9239 14.8924 766.0685)" class="st3" cx="1933.09" cy="345.6" rx="56.84" ry="56.84"/>
				<g>
					<path class="st3" d="M1669.43,325.14h-127.41l0,0c0,21.42-3.72,42.68-10.98,62.83l-149.08,413.5h104.38l37.5-113.93
						l167.26-1.21l38.21,115.14h110.37L1669.43,325.14z M1551.27,594.29l54.38-184.92l57.05,184.92H1551.27z"/>
				</g>
			</g>
		</g>
	</g>
	<g>
		<g>
			<path class="st2" d="M892.07,1084.16H199.28C92.05,1084.16,5.12,997.23,5.12,890V222.22c0-107.23,86.93-194.16,194.16-194.16
				h692.79c107.23,0,194.16,86.93,194.16,194.16V890C1086.23,997.23,999.3,1084.16,892.07,1084.16z"/>
			<g>
				<path class="st3" d="M429.15,298.62H252.95v469.5h98.9V621.48h77.3c44.57,0,84.93-18.08,114.15-47.28
					c29.2-29.22,47.28-69.57,47.28-114.15C590.58,370.9,518.3,298.62,429.15,298.62z M470.51,513.91
					c-13.79,13.78-32.83,22.3-53.86,22.3h-64.8V383.88h64.8c42.06,0,76.17,34.1,76.17,76.17
					C492.81,481.08,484.29,500.12,470.51,513.91z"/>
			</g>
			<path class="st3" d="M899.22,662.86c0,31.16-14.53,60.9-37.47,81.68c-25.85,23.42-61.75,33.41-95.87,36.01
				c-4.09,0.31-8.19,0.51-12.28,0.59c-37.92,0.77-77.79-7.29-112.25-23.21c-0.37-0.17-0.73-0.34-1.1-0.51
				c0.06-27.64,0.11-55.29,0.17-82.93c0,1.51,27.41,8.14,30.81,9.26c31.28,10.26,68.62,17.94,101.58,13.72
				c6.96-0.89,14.11-2.63,19.51-7.11c20.33-16.88-0.28-37.88-16.85-45.94c-17.97-8.74-37.32-14.26-55.67-22.15
				c-17.39-7.48-33.99-17.19-47.84-30.09c-45.83-42.71-44.06-114.43,2.66-155.91c26.45-23.49,62.17-30.94,96.65-32.46
				c35.69-1.57,71.71,4.79,104.75,18.38c1.27,0.52,2.61,1.12,3.32,2.3c0.6,1,0.62,2.23,0.62,3.4c0.03,28.22,0.07,56.45,0.1,84.67
				c-5.39-4.59-12.74-6.5-19.12-9.29c-6.92-3.02-13.99-5.69-21.17-8c-25.45-8.16-58.51-15.69-84.64-6.73
				c-9.6,3.29-16.76,10.13-16.76,20.77c0,16.45,16.12,24.36,29.3,30.37c16.33,7.44,33.73,11.97,50.01,19.52
				C859.94,578.79,899.22,612.42,899.22,662.86z"/>
		</g>
	</g>
</g>
</svg>
